<svg xmlns="http://www.w3.org/2000/svg" version="1.1" xmlns:xlink="http://www.w3.org/1999/xlink" width="1000" height="1000">
  <metadata>
    <rdf:RDF xmlns:rdf="http://www.w3.org/1999/02/22-rdf-syntax-ns#" xmlns:dc="http://purl.org/dc/elements/1.1/">
      <rdf:Description>
        <dc:creator>MathildeGabard</dc:creator>
        <dc:source>https://avocat-gabard.fr</dc:source>
      </rdf:Description>
    </rdf:RDF>
  </metadata>
  <style>
    #light-icon { display: inline; }
    #dark-icon  { display: none; }

    @media (prefers-color-scheme: dark) {
      #light-icon { display: none; }
      #dark-icon  { display: inline; }
    }
  </style>

  <!-- Version mode clair : icône sombre -->
  <g id="light-icon">
    <g transform="matrix(31.25,0,0,31.25,0,0)">
      <svg xmlns="http://www.w3.org/2000/svg" width="32" height="32" viewBox="0 0 32 32" fill="none">
        <path d="M20.3754 0.846864C22.5799 1.54877 24.0629 1.03298 24.5288 0.687339L24.5473 0.67413C24.6616 0.592592 24.8045 0.7288 24.7285 0.846864C23.8019 2.25068 24.0229 4.88816 24.2492 6.03142L24.2812 6.15914C24.3227 6.32512 24.0967 6.41797 24.0096 6.27071C23.3973 5.35344 22.2045 2.87283 20.2556 1.4052C19.5754 0.892943 17.7994 0.377238 16.6215 0.288528C15.0332 0.168913 13.0232 0.395985 11.3899 1.32544C9.30203 2.51349 8.35472 5.03439 7.91243 6.23083C7.33689 7.78772 5.51927 11.9338 6.07838 20.7476C6.19999 22.6647 7.03004 30.1517 13.9458 31.4756C19.73 32.583 22.6053 29.5653 23.6037 27.7573C24.8867 25.2216 24.4927 23.9086 23.8499 23.1804C23.5322 22.8205 22.8515 22.1833 21.7333 21.3857C21.2714 21.0562 19.2173 19.6309 17.6598 18.6738C17.5161 18.5851 17.6267 18.3654 17.7835 18.4281L17.8994 18.4744C22.1486 20.4206 26.8317 18.9662 28.6422 17.9958C28.8282 17.892 29.0078 18.1415 28.8502 18.2849L28.6422 18.4744C27.6198 19.3358 26.672 20.269 26.3259 20.628C24.1214 23.2761 26.1596 25.9627 26.8385 26.6805C27.0772 26.9329 26.7761 27.2831 26.4844 27.0945L26.3993 27.0395C25.313 26.2609 24.4888 27.1286 24.409 27.2084C24.3238 27.2934 24.1377 27.5274 23.77 28.0459C23.2269 28.8116 22.6352 29.4528 22.4072 29.6777C19.5598 32.3551 15.5266 32.178 13.8659 31.7548C12.5214 31.5155 9.08156 30.3989 6.07838 27.8465C3.07519 25.2941 1.63217 21.1198 1.28606 19.3518C0.766893 16.693 0.591175 10.2668 4.04164 5.83202C8.35472 0.288527 13.9458 0.101085 14.4649 0.0492411C15.663 -0.0703986 17.6199 -0.0305227 20.3754 0.846864Z" fill="#1B2A4A"></path></svg></g></g></svg></g><g id="dark-icon"><svg xmlns="http://www.w3.org/2000/svg" version="1.1" xmlns:xlink="http://www.w3.org/1999/xlink" width="1000" height="1000"><g><g transform="matrix(31.25,0,0,31.25,0,0)"><svg xmlns="http://www.w3.org/2000/svg" width="32" height="32" viewBox="0 0 32 32" fill="none"><path d="M20.3754 0.846864C22.5799 1.54877 24.0629 1.03298 24.5288 0.687339L24.5473 0.67413C24.6616 0.592592 24.8045 0.7288 24.7285 0.846864C23.8019 2.25068 24.0229 4.88816 24.2492 6.03142L24.2812 6.15914C24.3227 6.32512 24.0967 6.41797 24.0096 6.27071C23.3973 5.35344 22.2045 2.87283 20.2556 1.4052C19.5754 0.892943 17.7994 0.377238 16.6215 0.288528C15.0332 0.168913 13.0232 0.395985 11.3899 1.32544C9.30203 2.51349 8.35472 5.03439 7.91243 6.23083C7.33689 7.78772 5.51927 11.9338 6.07838 20.7476C6.19999 22.6647 7.03004 30.1517 13.9458 31.4756C19.73 32.583 22.6053 29.5653 23.6037 27.7573C24.8867 25.2216 24.4927 23.9086 23.8499 23.1804C23.5322 22.8205 22.8515 22.1833 21.7333 21.3857C21.2714 21.0562 19.2173 19.6309 17.6598 18.6738C17.5161 18.5851 17.6267 18.3654 17.7835 18.4281L17.8994 18.4744C22.1486 20.4206 26.8317 18.9662 28.6422 17.9958C28.8282 17.892 29.0078 18.1415 28.8502 18.2849L28.6422 18.4744C27.6198 19.3358 26.672 20.269 26.3259 20.628C24.1214 23.2761 26.1596 25.9627 26.8385 26.6805C27.0772 26.9329 26.7761 27.2831 26.4844 27.0945L26.3993 27.0395C25.313 26.2609 24.4888 27.1286 24.409 27.2084C24.3238 27.2934 24.1377 27.5274 23.77 28.0459C23.2269 28.8116 22.6352 29.4528 22.4072 29.6777C19.5598 32.3551 15.5266 32.178 13.8659 31.7548C12.5214 31.5155 9.08156 30.3989 6.07838 27.8465C3.07519 25.2941 1.63217 21.1198 1.28606 19.3518C0.766893 16.693 0.591175 10.2668 4.04164 5.83202C8.35472 0.288527 13.9458 0.101085 14.4649 0.0492411C15.663 -0.0703986 17.6199 -0.0305227 20.3754 0.846864Z" fill="#1a1a1a"></path>
      </svg>
    </g>
  </g>

  <!-- Version mode sombre : icône claire -->
  <g id="dark-icon">
    <g transform="matrix(31.25,0,0,31.25,0,0)">
      <svg xmlns="http://www.w3.org/2000/svg" width="32" height="32" viewBox="0 0 32 32" fill="none">
        <path d="M20.3754 0.846864C22.5799 1.54877 24.0629 1.03298 24.5288 0.687339L24.5473 0.67413C24.6616 0.592592 24.8045 0.7288 24.7285 0.846864C23.8019 2.25068 24.0229 4.88816 24.2492 6.03142L24.2812 6.15914C24.3227 6.32512 24.0967 6.41797 24.0096 6.27071C23.3973 5.35344 22.2045 2.87283 20.2556 1.4052C19.5754 0.892943 17.7994 0.377238 16.6215 0.288528C15.0332 0.168913 13.0232 0.395985 11.3899 1.32544C9.30203 2.51349 8.35472 5.03439 7.91243 6.23083C7.33689 7.78772 5.51927 11.9338 6.07838 20.7476C6.19999 22.6647 7.03004 30.1517 13.9458 31.4756C19.73 32.583 22.6053 29.5653 23.6037 27.7573C24.8867 25.2216 24.4927 23.9086 23.8499 23.1804C23.5322 22.8205 22.8515 22.1833 21.7333 21.3857C21.2714 21.0562 19.2173 19.6309 17.6598 18.6738C17.5161 18.5851 17.6267 18.3654 17.7835 18.4281L17.8994 18.4744C22.1486 20.4206 26.8317 18.9662 28.6422 17.9958C28.8282 17.892 29.0078 18.1415 28.8502 18.2849L28.6422 18.4744C27.6198 19.3358 26.672 20.269 26.3259 20.628C24.1214 23.2761 26.1596 25.9627 26.8385 26.6805C27.0772 26.9329 26.7761 27.2831 26.4844 27.0945L26.3993 27.0395C25.313 26.2609 24.4888 27.1286 24.409 27.2084C24.3238 27.2934 24.1377 27.5274 23.77 28.0459C23.2269 28.8116 22.6352 29.4528 22.4072 29.6777C19.5598 32.3551 15.5266 32.178 13.8659 31.7548C12.5214 31.5155 9.08156 30.3989 6.07838 27.8465C3.07519 25.2941 1.63217 21.1198 1.28606 19.3518C0.766893 16.693 0.591175 10.2668 4.04164 5.83202C8.35472 0.288527 13.9458 0.101085 14.4649 0.0492411C15.663 -0.0703986 17.6199 -0.0305227 20.3754 0.846864Z" fill="#1B2A4A"></path></svg></g></g></svg></g><g id="dark-icon"><svg xmlns="http://www.w3.org/2000/svg" version="1.1" xmlns:xlink="http://www.w3.org/1999/xlink" width="1000" height="1000"><g><g transform="matrix(31.25,0,0,31.25,0,0)"><svg xmlns="http://www.w3.org/2000/svg" width="32" height="32" viewBox="0 0 32 32" fill="none"><path d="M20.3754 0.846864C22.5799 1.54877 24.0629 1.03298 24.5288 0.687339L24.5473 0.67413C24.6616 0.592592 24.8045 0.7288 24.7285 0.846864C23.8019 2.25068 24.0229 4.88816 24.2492 6.03142L24.2812 6.15914C24.3227 6.32512 24.0967 6.41797 24.0096 6.27071C23.3973 5.35344 22.2045 2.87283 20.2556 1.4052C19.5754 0.892943 17.7994 0.377238 16.6215 0.288528C15.0332 0.168913 13.0232 0.395985 11.3899 1.32544C9.30203 2.51349 8.35472 5.03439 7.91243 6.23083C7.33689 7.78772 5.51927 11.9338 6.07838 20.7476C6.19999 22.6647 7.03004 30.1517 13.9458 31.4756C19.73 32.583 22.6053 29.5653 23.6037 27.7573C24.8867 25.2216 24.4927 23.9086 23.8499 23.1804C23.5322 22.8205 22.8515 22.1833 21.7333 21.3857C21.2714 21.0562 19.2173 19.6309 17.6598 18.6738C17.5161 18.5851 17.6267 18.3654 17.7835 18.4281L17.8994 18.4744C22.1486 20.4206 26.8317 18.9662 28.6422 17.9958C28.8282 17.892 29.0078 18.1415 28.8502 18.2849L28.6422 18.4744C27.6198 19.3358 26.672 20.269 26.3259 20.628C24.1214 23.2761 26.1596 25.9627 26.8385 26.6805C27.0772 26.9329 26.7761 27.2831 26.4844 27.0945L26.3993 27.0395C25.313 26.2609 24.4888 27.1286 24.409 27.2084C24.3238 27.2934 24.1377 27.5274 23.77 28.0459C23.2269 28.8116 22.6352 29.4528 22.4072 29.6777C19.5598 32.3551 15.5266 32.178 13.8659 31.7548C12.5214 31.5155 9.08156 30.3989 6.07838 27.8465C3.07519 25.2941 1.63217 21.1198 1.28606 19.3518C0.766893 16.693 0.591175 10.2668 4.04164 5.83202C8.35472 0.288527 13.9458 0.101085 14.4649 0.0492411C15.663 -0.0703986 17.6199 -0.0305227 20.3754 0.846864Z" fill="#ffffff"></path>
      </svg>
    </g>
  </g>
</svg>